<?xml version="1.0" encoding="UTF-8" standalone="no"?>
<!-- Created with Inkscape (http://www.inkscape.org/) -->

<svg
   width="47.72049"
   height="49.31102"
   viewBox="0 0 12.626046 13.046874"
   version="1.1"
   id="svg168"
   xmlns="http://www.w3.org/2000/svg"
   xmlns:svg="http://www.w3.org/2000/svg">
  <defs
     id="defs165">
    <linearGradient
       id="linearGradient1016">
      <stop
         style="stop-color:#b16a47;stop-opacity:1;"
         offset="0"
         id="stop1014" />
    </linearGradient>
  </defs>
  <g
     id="layer1"
     transform="translate(-0.11078307,0.18631876)">
    <text
       xml:space="preserve"
       style="font-style:normal;font-variant:normal;font-weight:bold;font-stretch:normal;font-size:23.8587px;font-family:'Tw Cen MT Condensed';-inkscape-font-specification:'Tw Cen MT Condensed, Bold';font-variant-ligatures:normal;font-variant-caps:normal;font-variant-numeric:normal;font-variant-east-asian:normal;display:inline;fill:#ffffff;fill-opacity:1;stroke:#d9d9d9;stroke-width:1.994;stroke-linecap:round;stroke-linejoin:round;stroke-dasharray:none;stroke-opacity:1"
       x="-0.15137534"
       y="16.013653"
       id="text174"
       transform="scale(1.3880486,0.72043587)"><tspan
         id="tspan172"
         style="font-style:normal;font-variant:normal;font-weight:bold;font-stretch:normal;font-size:23.8587px;font-family:'Tw Cen MT Condensed';-inkscape-font-specification:'Tw Cen MT Condensed, Bold';font-variant-ligatures:normal;font-variant-caps:normal;font-variant-numeric:normal;font-variant-east-asian:normal;fill:#ffffff;fill-opacity:1;stroke:#d9d9d9;stroke-width:1.994;stroke-linecap:round;stroke-linejoin:round;stroke-dasharray:none;stroke-opacity:1"
         x="-0.15137534"
         y="16.013653">S</tspan></text>
  </g>
  <g
     id="layer2"
     transform="translate(-0.11078307,0.18631876)">
    <path
       id="text964"
       style="font-style:normal;font-variant:normal;font-weight:normal;font-stretch:normal;font-size:8.5206px;font-family:'MV Boli';-inkscape-font-specification:'MV Boli, Normal';font-variant-ligatures:normal;font-variant-caps:normal;font-variant-numeric:normal;font-variant-east-asian:normal;fill:#1e1e1e;fill-opacity:1;stroke:#ffffff;stroke-width:0.415849;stroke-opacity:1"
       d="m 10.064283,0.55739114 c -0.03533,0 -0.0932,0.02182 -0.1744867,0.064301 -0.08128,0.037167 -0.150205,0.079824 -0.206751,0.1276111 -0.116624,0.1274274 -0.19834,0.27004036 -0.244281,0.42932606 -0.04595,0.1592856 -0.07715,0.2950761 -0.09481,0.4065745 -0.007,0.042475 -0.01466,0.08774 -0.02174,0.1355255 -0.0035,0.042475 -0.0053,0.092947 -0.0053,0.1513522 0,0.031857 0.0018,0.07092 0.0053,0.1187081 0.007,0.042475 0.03027,0.1043539 0.06913,0.183996 0.06715,0.1380483 0.1222,0.2275844 0.16461,0.2700593 0.04595,0.042475 0.109006,0.064302 0.19029,0.064302 0.06361,0 0.138395,-0.019219 0.223211,-0.056386 0.08482,-0.037167 0.1658747,-0.087639 0.2436227,-0.1513524 0.07774,-0.069023 0.146671,-0.1481421 0.206751,-0.238406 0.06008,-0.095571 0.1006,-0.1991196 0.121813,-0.3106187 0.0071,-0.042475 0.01574,-0.098157 0.02634,-0.1671808 0.01064,-0.069025 0.0158,-0.1465297 0.0158,-0.2314813 0,-0.1168092 -0.01386,-0.2177534 -0.04214,-0.3027063 -0.02474,-0.084954 -0.08153,-0.13182826 -0.16988,-0.14245046 -0.03182,-0.063713 -0.06541,-0.1229892 -0.10074,-0.1760847 -0.02828,-0.042474 -0.06187,-0.081542 -0.100738,-0.1187094 -0.03533,-0.037167 -0.07066,-0.056386 -0.106009,-0.056386 z M 6.422447,3.2253483 c -0.1378283,0 -0.2362196,0.040057 -0.2962985,0.1196967 -0.056544,0.074334 -0.099463,0.2127287 -0.1277373,0.4144884 L 5.8607984,4.8190005 C 5.8395888,4.9729775 5.8094667,5.1800721 5.770592,5.4402382 5.7317173,5.6950931 5.6842556,5.968288 5.6277115,6.260311 5.574701,6.5523333 5.5109777,6.8437583 5.4367641,7.1357809 5.3660819,7.422493 5.2884932,7.6774577 5.2036758,7.9004569 L 5.0654001,8.2595484 C 4.9947189,8.4347622 4.9032614,8.6356602 4.7901718,8.8639692 4.6806161,9.0869682 4.556639,9.3002634 4.4188112,9.5020244 4.2809831,9.6984764 4.1362041,9.8655174 3.9842401,10.003565 c -0.151965,0.13804 -0.3019437,0.206749 -0.4503737,0.206749 -0.084816,0 -0.1572057,-0.04005 -0.2172855,-0.119698 -0.06008,-0.07965 -0.1099332,-0.1779796 -0.1488077,-0.2947906 -0.038874,-0.122126 -0.069001,-0.251709 -0.090207,-0.389757 -0.017667,-0.138056 -0.026339,-0.262428 -0.026339,-0.3739289 0,-0.1114995 0.017997,-0.2769278 0.053335,-0.4946158 C 3.1434372,8.319833 3.1960998,8.0388258 3.263247,7.6937083 3.3339274,7.3485902 3.4191106,6.9317937 3.5180636,6.4433192 3.6170181,5.9495353 3.726467,5.3709058 3.8466259,4.7072178 c 0.021209,-0.1008811 0.031605,-0.2096373 0.031605,-0.3264467 0,-0.1486657 -0.021452,-0.2766424 -0.063868,-0.3828324 C 3.7754868,3.8917488 3.7100331,3.8360674 3.6181476,3.8307576 3.5651377,3.8148276 3.5107407,3.799201 3.4541972,3.7832741 3.40472,3.772655 3.3531325,3.7622393 3.3001222,3.7516173 c -0.053011,-0.01593 -0.098739,-0.023732 -0.1376128,-0.023732 -0.014147,0 -0.033203,0.00782 -0.057942,0.023731 -0.024738,0.015931 -0.053133,0.041973 -0.08494,0.079137 -0.028273,0.037167 -0.056668,0.087639 -0.08494,0.151352 -0.024739,0.058404 -0.044466,0.1307015 -0.0586,0.2156533 -0.02121,0.1221193 -0.045473,0.264732 -0.073745,0.4293254 C 2.7740693,4.786367 2.7387417,4.9804428 2.6963337,5.2087519 2.6574589,5.4370605 2.6110712,5.7024417 2.5580604,6.0050832 2.5050496,6.3077235 2.445452,6.6584237 2.3783053,7.0566364 c -0.021209,0.1274292 -0.049599,0.2736364 -0.08494,0.4382299 -0.031805,0.1592835 -0.061935,0.3315354 -0.090207,0.5173682 -0.028272,0.1805231 -0.053199,0.3693886 -0.074402,0.5658405 -0.021209,0.1964523 -0.031605,0.3921413 -0.031605,0.5885924 0,0.350427 0.040528,0.695918 0.1218123,1.0357266 0.081283,0.339807 0.2191292,0.645241 0.413501,0.916028 0.042408,0.05838 0.099197,0.119297 0.1698787,0.183006 0.07068,0.06903 0.1448034,0.129901 0.2225528,0.183004 0.07775,0.05309 0.1518725,0.09576 0.222553,0.127613 0.074216,0.03716 0.1344716,0.05539 0.180413,0.05539 0.2297132,0 0.4416813,-0.08172 0.6360539,-0.246317 C 4.2618179,11.261842 4.4436576,11.06256 4.6097582,10.823632 4.7758591,10.584706 4.9275712,10.327137 5.0653993,10.051044 5.203228,9.7749494 5.3306713,9.5251934 5.447295,9.3021944 l 0.048068,-0.02373 0.057945,1.5056096 c 0.00354,0.07434 0.010466,0.148241 0.021077,0.222578 0.010615,0.06902 0.032062,0.13251 0.063868,0.190921 0.035341,0.0584 0.082803,0.103674 0.1428826,0.135527 0.06008,0.03716 0.1417936,0.05639 0.2442816,0.05639 0.1484293,0 0.2526805,-0.05047 0.3127596,-0.151351 0.063613,-0.100875 0.1145427,-0.2549 0.153417,-0.461971 0.010615,-0.05309 0.017536,-0.133207 0.021077,-0.239393 0.00706,-0.106204 0.010541,-0.22797 0.010541,-0.366016 0,-0.3026456 -0.00692,-0.5898466 -0.021078,-0.8606316 -0.010615,-0.2707735 -0.015796,-0.5413644 -0.015796,-0.812149 0,-0.1592838 0.00692,-0.3367445 0.021078,-0.5331961 0.017666,-0.2017788 0.039129,-0.411478 0.063867,-0.6291673 0.028273,-0.2229983 0.0584,-0.4441068 0.090207,-0.6617962 0.035342,-0.2229962 0.068935,-0.4326977 0.1007393,-0.6291494 0.056544,-0.3344987 0.1074733,-0.6659777 0.1534171,-0.9951669 0.049477,-0.3344991 0.074405,-0.6155062 0.074405,-0.8438147 0,-0.1964523 -0.012139,-0.3556805 -0.036872,-0.4777991 C 6.9284385,3.6004632 6.890719,3.4995192 6.8412418,3.4251847 6.7917647,3.3508529 6.7321691,3.3003811 6.6614867,3.2738314 6.5908065,3.2419744 6.5108243,3.2253602 6.4224729,3.2253602 Z m 2.9425733,0.9882426 c -0.08128,0 -0.151939,0.018248 -0.21202,0.055395 -0.06008,0.037167 -0.109932,0.08243 -0.148807,0.135526 -0.03887,0.047787 -0.069,0.098257 -0.0902,0.1513522 -0.02121,0.047783 -0.03334,0.082631 -0.03688,0.1038692 -0.07422,0.4513104 -0.153537,0.9149855 -0.238354,1.3928407 -0.08482,0.4778538 -0.169997,0.9451223 -0.254814,1.40174 -0.08129,0.4566174 -0.158875,0.890029 -0.23309,1.2988612 -0.07422,0.4088322 -0.1379364,0.7673442 -0.1909469,1.0752942 L 7.8064912,10.760326 c -0.00706,0.02655 -0.01054,0.04999 -0.01054,0.07123 v 0.07221 c 0,0.09026 0.012139,0.185006 0.036873,0.285888 0.024739,0.100875 0.061801,0.194014 0.1112778,0.278961 0.049477,0.08496 0.1097329,0.153656 0.1804123,0.206751 0.07068,0.0584 0.151739,0.08805 0.243624,0.08805 0.04948,0 0.09173,-0.01561 0.127079,-0.04749 0.03534,-0.03186 0.06546,-0.07191 0.0902,-0.119692 0.02474,-0.0478 0.04447,-0.09566 0.0586,-0.143431 0.01414,-0.0478 0.02453,-0.08784 0.0316,-0.119693 0.162571,-0.955722 0.328809,-1.9084886 0.498443,-2.8588904 0.173168,-0.9504012 0.342875,-1.89796 0.508976,-2.8430519 L 9.8311933,4.786356 c 0.0035,-0.01593 0.0053,-0.031556 0.0053,-0.047485 V 4.683476 c 0,-0.079643 -0.01386,-0.1493332 -0.04214,-0.2077375 -0.02475,-0.063714 -0.06007,-0.1141858 -0.106018,-0.1513542 -0.04241,-0.037167 -0.09226,-0.063208 -0.148808,-0.079138 -0.05654,-0.021223 -0.114407,-0.031656 -0.174486,-0.031656 z" />
  </g>
</svg>
