<?xml version="1.0" encoding="UTF-8" standalone="no"?>
<!-- Created with Inkscape (http://www.inkscape.org/) -->

<svg
   width="48"
   height="48"
   viewBox="0 0 12.7 12.7"
   version="1.1"
   id="svg168"
   xmlns="http://www.w3.org/2000/svg"
   xmlns:svg="http://www.w3.org/2000/svg">
  <defs
     id="defs165">
    <linearGradient
       id="linearGradient1016">
      <stop
         style="stop-color:#b16a47;stop-opacity:1;"
         offset="0"
         id="stop1014" />
    </linearGradient>
  </defs>
  <g
     id="layer1">
    <text
       xml:space="preserve"
       style="font-style:normal;font-variant:normal;font-weight:bold;font-stretch:normal;font-size:23.8587px;font-family:'Tw Cen MT Condensed';-inkscape-font-specification:'Tw Cen MT Condensed, Bold';font-variant-ligatures:normal;font-variant-caps:normal;font-variant-numeric:normal;font-variant-east-asian:normal;fill:#ffffff;fill-opacity:1;stroke:#d9d9d9;stroke-width:0.994034;stroke-linecap:round;stroke-linejoin:round;stroke-dasharray:none;stroke-opacity:1"
       x="-0.15137534"
       y="16.013653"
       id="text174"
       transform="scale(1.3880486,0.72043587)"><tspan
         id="tspan172"
         style="font-style:normal;font-variant:normal;font-weight:bold;font-stretch:normal;font-size:23.8587px;font-family:'Tw Cen MT Condensed';-inkscape-font-specification:'Tw Cen MT Condensed, Bold';font-variant-ligatures:normal;font-variant-caps:normal;font-variant-numeric:normal;font-variant-east-asian:normal;fill:#ffffff;fill-opacity:1;stroke:#d9d9d9;stroke-width:0.994034;stroke-linecap:round;stroke-linejoin:round;stroke-dasharray:none;stroke-opacity:1"
         x="-0.15137534"
         y="16.013653">S</tspan></text>
  </g>
  <g
     id="layer2">
    <path
       id="text964"
       style="font-style:normal;font-variant:normal;font-weight:normal;font-stretch:normal;font-size:8.5206px;font-family:'MV Boli';-inkscape-font-specification:'MV Boli, Normal';font-variant-ligatures:normal;font-variant-caps:normal;font-variant-numeric:normal;font-variant-east-asian:normal;fill:#808080;stroke:#ffffff;stroke-width:0.327217;stroke-opacity:1"
       d="m 10.051799,2.5891357 c -0.03319,0 -0.087539,0.014384 -0.1638883,0.042387 -0.076344,0.0245 -0.141082,0.05262 -0.1941933,0.084121 C 9.584177,2.7996437 9.5074251,2.8936536 9.464274,2.9986544 9.421119,3.103655 9.391816,3.1931677 9.37522,3.2666672 c -0.00665,0.027999 -0.013763,0.057838 -0.020415,0.089338 -0.00332,0.027999 -0.00498,0.06127 -0.00498,0.099771 0,0.021 0.00166,0.04675 0.00498,0.078252 0.00665,0.027999 0.028424,0.06879 0.064936,0.1212897 0.063071,0.091001 0.1147778,0.1500231 0.1546114,0.1780224 0.043155,0.027999 0.1023845,0.042387 0.178731,0.042387 0.059749,0 0.129988,-0.012669 0.2096528,-0.03717 0.079666,-0.0245 0.1557988,-0.057772 0.2288258,-0.099771 0.07302,-0.0455 0.137762,-0.097655 0.194193,-0.1571567 0.05643,-0.063 0.09449,-0.1312591 0.114413,-0.204759 0.0067,-0.027999 0.01478,-0.064705 0.02474,-0.1102052 0.01,-0.045501 0.01484,-0.096592 0.01484,-0.1525918 0,-0.077 -0.01302,-0.1435425 -0.03958,-0.1995432 -0.02324,-0.056001 -0.07658,-0.086901 -0.159561,-0.093903 -0.02988,-0.042 -0.06143,-0.081074 -0.09462,-0.1160746 -0.02656,-0.027999 -0.05811,-0.053752 -0.09462,-0.078253 -0.03319,-0.0245 -0.06637,-0.03717 -0.09957,-0.03717 z M 6.6311701,4.3478462 c -0.1294565,0 -0.2218714,0.026405 -0.2783011,0.078904 -0.05311,0.049001 -0.093422,0.14023 -0.1199785,0.2732295 L 6.1036364,5.3983776 C 6.0837151,5.4998788 6.0554225,5.6363951 6.0189092,5.8078958 5.9823958,5.9758955 5.9378169,6.155985 5.8847073,6.3484857 5.8349166,6.540986 5.775064,6.7330926 5.7053582,6.9255932 5.6389692,7.114593 5.5660933,7.2826652 5.4864278,7.4296656 L 5.356551,7.6663778 C 5.2901631,7.7818783 5.2042608,7.9143097 5.0980402,8.0648104 4.9951391,8.2118108 4.8786924,8.3524143 4.7492363,8.4854144 4.61978,8.6149147 4.483795,8.725028 4.3410613,8.8160286 4.1983267,8.9070253 4.0574579,8.9523175 3.9180436,8.9523175 c -0.079664,0 -0.147657,-0.026402 -0.2040875,-0.078904 -0.056431,-0.052502 -0.1032557,-0.117325 -0.139769,-0.1943254 -0.036513,-0.080506 -0.06481,-0.1659263 -0.084728,-0.256927 -0.016594,-0.091006 -0.024739,-0.1729923 -0.024739,-0.2464932 0,-0.0735 0.016904,-0.1825502 0.050095,-0.3260495 0.036514,-0.1435012 0.085978,-0.3287403 0.1490466,-0.556241 0.066387,-0.2275009 0.1463964,-0.502252 0.2393389,-0.8242531 0.092944,-0.3255011 0.1957449,-0.7069322 0.3086052,-1.1444336 0.019921,-0.066501 0.029685,-0.1381924 0.029685,-0.2151928 0,-0.098 -0.020149,-0.1823619 -0.059989,-0.2523622 -0.036514,-0.07 -0.097992,-0.106705 -0.1842962,-0.1102053 -0.04979,-0.010501 -0.1008831,-0.020802 -0.153992,-0.031301 -0.046472,-0.007 -0.094926,-0.013866 -0.1447164,-0.020868 -0.049791,-0.010501 -0.092742,-0.015644 -0.1292541,-0.015644 -0.013288,0 -0.031187,0.00515 -0.054423,0.015643 -0.023236,0.010501 -0.049905,0.027668 -0.079781,0.052167 -0.026555,0.0245 -0.053226,0.057772 -0.079781,0.099771 -0.023236,0.0385 -0.041764,0.086158 -0.055041,0.142158 C 3.280296,5.0693571 3.2575065,5.163367 3.2309518,5.2718665 3.204397,5.3768657 3.1712153,5.5048 3.1313831,5.6553007 3.0948696,5.8058012 3.0512995,5.9807397 3.0015086,6.1802402 2.9517177,6.3797399 2.8957401,6.6109206 2.8326719,6.8734214 c -0.019921,0.084001 -0.046586,0.1803804 -0.079781,0.2888799 -0.029873,0.1049993 -0.058173,0.2185473 -0.084728,0.3410478 -0.026555,0.1190003 -0.049968,0.2435 -0.069883,0.3730006 -0.019921,0.1295009 -0.029685,0.2584985 -0.029685,0.387999 0,0.2310002 0.038066,0.4587469 0.1144134,0.6827477 0.076346,0.2240008 0.2058191,0.4253418 0.3883847,0.6038438 0.039832,0.03849 0.093172,0.07864 0.1595601,0.120637 0.066387,0.0455 0.1360081,0.08563 0.2090348,0.120636 0.073027,0.035 0.1426478,0.06312 0.2090351,0.08412 0.069708,0.0245 0.1263037,0.03652 0.1694546,0.03652 0.2157603,0 0.4148533,-0.05387 0.5974196,-0.162372 C 4.6017784,9.6454872 4.7725731,9.5141202 4.9285846,9.3566202 5.0845965,9.1991202 5.2270935,9.0293316 5.3565498,8.8473315 5.4860068,8.6653312 5.6057091,8.5006922 5.715249,8.3536919 l 0.045148,-0.015639 0.054425,0.9924943 c 0.00333,0.049 0.00983,0.09772 0.019797,0.146723 0.00997,0.0455 0.030115,0.08735 0.059989,0.125854 0.033195,0.03849 0.077773,0.06834 0.1342039,0.08934 0.056431,0.0245 0.1331809,0.03717 0.2294437,0.03717 0.1394136,0 0.2373325,-0.03327 0.2937625,-0.09977 0.059749,-0.0665 0.1075852,-0.168029 0.1440983,-0.30453 0.00997,-0.035 0.016471,-0.08781 0.019797,-0.157807 0.00663,-0.07001 0.0099,-0.1502777 0.0099,-0.2412774 0,-0.1995022 -0.0065,-0.3888253 -0.019797,-0.5673258 -0.00997,-0.1785001 -0.014837,-0.3568729 -0.014837,-0.5353735 0,-0.1049993 0.0065,-0.221981 0.019797,-0.3514814 0.016593,-0.1330112 0.036752,-0.2712444 0.059988,-0.4147447 0.026555,-0.1469998 0.054853,-0.2927539 0.084728,-0.4362543 0.033195,-0.1469997 0.064748,-0.2852344 0.094621,-0.4147349 0.05311,-0.2205007 0.1009453,-0.4390107 0.1440985,-0.6560114 0.046472,-0.220501 0.069886,-0.4057401 0.069886,-0.5562405 0,-0.1295009 -0.011402,-0.2344636 -0.034633,-0.3149638 C 7.1064273,4.595121 7.070999,4.528579 7.0245271,4.4795778 6.9780552,4.4305785 6.9220795,4.3973076 6.8556904,4.3798061 c -0.066387,-0.021 -0.1415111,-0.031952 -0.224496,-0.031952 z m 2.7638396,0.651447 c -0.076344,0 -0.1427103,0.012029 -0.1991408,0.036517 -0.056428,0.0245 -0.1032557,0.054337 -0.1397693,0.089338 -0.036512,0.031501 -0.064809,0.064771 -0.084725,0.099771 -0.019927,0.031499 -0.031315,0.05447 -0.034637,0.06847 -0.069713,0.2975027 -0.1442129,0.6031561 -0.223878,0.918157 -0.079664,0.315 -0.159671,0.6230221 -0.2393361,0.9240233 C 8.3971775,7.4365704 8.3242999,7.7222743 8.2545933,7.9917753 8.1848854,8.2612761 8.1250348,8.4976066 8.0752442,8.7006065 L 7.9311457,9.3148842 c -0.00663,0.0175 -0.0099,0.03295 -0.0099,0.04695 v 0.0476 c 0,0.0595 0.011402,0.121956 0.034633,0.188457 0.023236,0.0665 0.058046,0.127893 0.1045187,0.183891 0.046472,0.056 0.1030676,0.101288 0.1694545,0.136289 0.066387,0.03849 0.1425217,0.05804 0.2288258,0.05804 0.046475,0 0.086162,-0.01029 0.1193607,-0.03131 0.033191,-0.021 0.061488,-0.0474 0.084725,-0.0789 0.023237,-0.0315 0.041768,-0.06305 0.055041,-0.09455 0.013284,-0.0315 0.023043,-0.0579 0.029684,-0.0789 C 8.9001852,9.0624472 9.0563264,8.4343855 9.2156565,7.8078833 9.3783057,7.1813813 9.5377043,6.556753 9.6937164,5.9337509 L 9.8328672,5.3768584 c 0.00332,-0.010501 0.00498,-0.020802 0.00498,-0.031302 v -0.036517 c 0,-0.0525 -0.013021,-0.09844 -0.039579,-0.13694 -0.023232,-0.042 -0.056413,-0.075271 -0.099564,-0.099772 -0.039833,-0.0245 -0.08666,-0.041667 -0.1397692,-0.052167 -0.053107,-0.01399 -0.1074584,-0.020868 -0.1638888,-0.020868 z" />
  </g>
</svg>
