<?xml version="1.0" encoding="UTF-8" standalone="no"?>
<!-- Created with Inkscape (http://www.inkscape.org/) -->

<svg
   width="47.72049"
   height="49.31102"
   viewBox="0 0 12.626046 13.046874"
   version="1.1"
   id="svg168"
   xmlns="http://www.w3.org/2000/svg"
   xmlns:svg="http://www.w3.org/2000/svg">
  <defs
     id="defs165">
    <linearGradient
       id="linearGradient1016">
      <stop
         style="stop-color:#b16a47;stop-opacity:1;"
         offset="0"
         id="stop1014" />
    </linearGradient>
  </defs>
  <g
     id="layer1"
     transform="translate(-0.11078307,0.18631876)">
    <text
       xml:space="preserve"
       style="font-style:normal;font-variant:normal;font-weight:bold;font-stretch:normal;font-size:23.8587px;font-family:'Tw Cen MT Condensed';-inkscape-font-specification:'Tw Cen MT Condensed, Bold';font-variant-ligatures:normal;font-variant-caps:normal;font-variant-numeric:normal;font-variant-east-asian:normal;display:inline;fill:#ffffff;fill-opacity:1;stroke:#d9d9d9;stroke-width:1.994;stroke-linecap:round;stroke-linejoin:round;stroke-dasharray:none;stroke-opacity:1"
       x="-0.15137534"
       y="16.013653"
       id="text174"
       transform="scale(1.3880486,0.72043587)"><tspan
         id="tspan172"
         style="font-style:normal;font-variant:normal;font-weight:bold;font-stretch:normal;font-size:23.8587px;font-family:'Tw Cen MT Condensed';-inkscape-font-specification:'Tw Cen MT Condensed, Bold';font-variant-ligatures:normal;font-variant-caps:normal;font-variant-numeric:normal;font-variant-east-asian:normal;fill:#ffffff;fill-opacity:1;stroke:#d9d9d9;stroke-width:1.994;stroke-linecap:round;stroke-linejoin:round;stroke-dasharray:none;stroke-opacity:1"
         x="-0.15137534"
         y="16.013653">S</tspan></text>
  </g>
  <g
     id="layer2"
     transform="translate(-0.11078307,0.18631876)">
    <path
       id="text964"
       style="font-style:normal;font-variant:normal;font-weight:normal;font-stretch:normal;font-size:8.5206px;font-family:'MV Boli';-inkscape-font-specification:'MV Boli, Normal';font-variant-ligatures:normal;font-variant-caps:normal;font-variant-numeric:normal;font-variant-east-asian:normal;fill:#1e1e1e;fill-opacity:1;stroke:#ffffff;stroke-width:0.516687;stroke-opacity:1"
       d="m 11.719884,0.45960697 c -0.05034,0 -0.132782,0.023644 -0.248591,0.0696757 -0.115798,0.0402729 -0.213997,0.0864957 -0.294558,0.13827668 -0.166155,0.13807761 -0.282575,0.29261011 -0.348027,0.46520875 -0.06546,0.1725985 -0.10991,0.3197382 -0.13508,0.4405555 -0.01003,0.046025 -0.02088,0.095073 -0.03097,0.1468526 -0.005,0.046025 -0.0076,0.1007148 -0.0076,0.164002 0,0.03452 0.0026,0.076847 0.0076,0.1286296 0.01003,0.046025 0.04312,0.1130757 0.09849,0.1993742 0.09567,0.1495862 0.174098,0.2466057 0.234519,0.2926306 0.06546,0.046025 0.1553,0.069676 0.271106,0.069676 0.09063,0 0.19717,-0.020825 0.318008,-0.061099 0.120836,-0.040273 0.236321,-0.094964 0.347089,-0.1640022 0.110759,-0.074792 0.208962,-0.1605237 0.294558,-0.2583317 0.08559,-0.1035583 0.143325,-0.2157618 0.173546,-0.3365799 0.01018,-0.046025 0.02242,-0.1063606 0.03752,-0.1811536 0.01516,-0.074794 0.02251,-0.1587765 0.02251,-0.2508282 0,-0.126572 -0.01975,-0.235953 -0.06003,-0.32800618 -0.03525,-0.0920543 -0.116157,-0.14284643 -0.242027,-0.15435635 -0.04533,-0.0690385 -0.09319,-0.13326855 -0.143524,-0.19080174 -0.04029,-0.0460238 -0.08815,-0.0883568 -0.143521,-0.12863096 -0.05034,-0.0402729 -0.100671,-0.0610991 -0.151031,-0.0610991 z M 6.531367,3.3505492 c -0.1963637,0 -0.3365415,0.043405 -0.4221358,0.1297008 C 6.0286732,3.560797 5.9675259,3.7107583 5.9272441,3.9293809 L 5.7311874,5.0773971 C 5.7009702,5.2442433 5.6580552,5.4686467 5.6026706,5.7505571 5.5472859,6.0267125 5.4796673,6.3227408 5.399109,6.6391707 5.323585,6.9555999 5.2327986,7.2713819 5.1270667,7.5878115 5.0263658,7.8984866 4.9158254,8.174761 4.7949863,8.4163982 L 4.5979851,8.8055022 C 4.4972858,8.9953602 4.3669865,9.213049 4.2058679,9.4604399 4.0497842,9.7020769 3.8731543,9.9331986 3.6767913,10.151823 3.4804279,10.364694 3.2741616,10.545696 3.0576587,10.695282 2.8411545,10.84486 2.6274802,10.919311 2.4160123,10.919311 c -0.1208368,0 -0.2239707,-0.0434 -0.3095662,-0.129702 C 2.0208495,10.703307 1.9498245,10.596753 1.89444,10.47018 1.8390561,10.337846 1.7961348,10.197433 1.7659219,10.047847 1.7407518,9.8982529 1.7283965,9.7634855 1.7283965,9.6426657 c 0,-0.1208186 0.025641,-0.3000732 0.075986,-0.5359553 C 1.8597686,8.8708253 1.9347969,8.5663319 2.0304614,8.1923698 2.1311596,7.8184071 2.25252,7.3667752 2.3934981,6.8374746 2.5344784,6.3024207 2.69041,5.67543 2.8616001,4.9562717 c 0.030217,-0.1093126 0.045027,-0.2271586 0.045027,-0.3537308 0,-0.161091 -0.030563,-0.2997638 -0.090993,-0.4148291 C 2.7602483,4.0726467 2.6669966,4.0123115 2.5360876,4.0065579 2.4605645,3.9892965 2.3830651,3.9723639 2.3025078,3.9551058 2.2320177,3.9435992 2.1585211,3.9323129 2.0829974,3.9208032 2.007473,3.9035419 1.9423236,3.8950879 1.8869408,3.8950879 c -0.020156,0 -0.047305,0.00847 -0.08255,0.025714 -0.035244,0.017262 -0.075698,0.045481 -0.1210142,0.085751 -0.04028,0.040273 -0.080734,0.094964 -0.1210143,0.1640019 -0.035245,0.063285 -0.06335,0.1416254 -0.083488,0.2336773 C 1.4486566,4.536558 1.4140896,4.6910902 1.3738098,4.8694401 1.3335309,5.0420361 1.2831998,5.2523326 1.2227812,5.4997235 1.1673964,5.7471139 1.1013079,6.0346753 1.0257835,6.3626113 0.95025915,6.6905459 0.86535057,7.0705573 0.76968675,7.5020522 0.73946996,7.6401318 0.69902368,7.7985588 0.64867238,7.9769088 0.60336011,8.1495051 0.56043385,8.3361536 0.52015431,8.5375181 0.47987494,8.7331291 0.4443613,8.9377798 0.41415367,9.1506509 0.38393687,9.3635225 0.36912656,9.575567 0.36912656,9.7884373 c 0,0.3797157 0.0577395,0.7540817 0.17354574,1.1222917 0.11580411,0.368208 0.3121929,0.69917 0.589114,0.992589 0.060419,0.06326 0.1413263,0.129268 0.2420258,0.198301 0.1006984,0.0748 0.2063012,0.140758 0.3170705,0.198299 0.11077,0.05753 0.2163725,0.103762 0.3170709,0.138279 0.1057353,0.04027 0.1915814,0.06002 0.2570339,0.06002 0.327272,0 0.6292625,-0.08855 0.9061847,-0.266904 0.2819504,-0.172588 0.5410171,-0.388526 0.7776603,-0.647423 0.2366436,-0.258896 0.4527875,-0.537992 0.6491509,-0.837161 0.1963643,-0.29917 0.3779325,-0.569801 0.544086,-0.8114376 l 0.068483,-0.025709 0.082554,1.6314476 c 0.00505,0.08055 0.014911,0.16063 0.030029,0.241181 0.015123,0.07479 0.045679,0.143585 0.090992,0.206877 0.050351,0.06328 0.1179689,0.112339 0.2035646,0.146855 0.085596,0.04027 0.202013,0.0611 0.3480274,0.0611 0.2114669,0 0.3599934,-0.05469 0.445588,-0.164 0.090629,-0.109306 0.1631887,-0.276204 0.2185728,-0.500582 0.015123,-0.05753 0.024983,-0.144341 0.030029,-0.259401 0.010054,-0.115081 0.015017,-0.247024 0.015017,-0.396608 0,-0.32794 -0.00986,-0.639145 -0.030029,-0.9325625 -0.015123,-0.2934043 -0.022505,-0.5866109 -0.022505,-0.8800274 0,-0.1725965 0.00986,-0.3648892 0.030029,-0.57776 C 6.6775901,8.2674588 6.7081681,8.0402332 6.7434121,7.8043496 6.7836921,7.5627134 6.8266151,7.3231249 6.8719298,7.0872412 6.9222818,6.8456051 6.9701418,6.618377 7.0154539,6.405506 7.0960119,6.0430503 7.1685709,5.6838667 7.2340269,5.3271642 7.3045169,4.964708 7.3400317,4.6602147 7.3400317,4.4128244 c 0,-0.2128716 -0.017295,-0.3854079 -0.052532,-0.517733 C 7.252252,3.7570158 7.1985131,3.647635 7.1280231,3.5670877 7.0575332,3.4865433 6.9726274,3.4318531 6.8719264,3.4030844 6.7712285,3.3685649 6.6572779,3.3505621 6.5314039,3.3505621 Z m 4.192278,1.0708388 c -0.115798,0 -0.216467,0.019773 -0.302064,0.060025 -0.08559,0.040273 -0.156621,0.089319 -0.212005,0.1468531 -0.05538,0.051781 -0.0983,0.1064697 -0.128512,0.164002 -0.03022,0.051777 -0.0475,0.089537 -0.05254,0.1125505 C 9.9227811,5.393849 9.8097795,5.8962776 9.6889409,6.4140714 9.5681041,6.9318637 9.446747,7.438186 9.3259085,7.9329673 9.210102,8.4277483 9.0995589,8.897384 8.9938258,9.3403859 8.8880907,9.7833873 8.7973075,10.171864 8.7217836,10.505552 l -0.2185731,1.00974 c -0.010054,0.02877 -0.015017,0.05417 -0.015017,0.07718 v 0.07824 c 0,0.0978 0.017295,0.200469 0.052533,0.309783 0.035245,0.109306 0.088047,0.210229 0.1585372,0.302276 0.07049,0.09206 0.1563362,0.166498 0.2570339,0.224031 0.1006984,0.06328 0.2161813,0.09541 0.3470901,0.09541 0.070494,0 0.1306932,-0.01691 0.18105,-0.05146 0.050345,-0.03452 0.093267,-0.07792 0.1285139,-0.129696 0.035247,-0.05179 0.063354,-0.10365 0.083488,-0.155419 0.02015,-0.05179 0.034952,-0.09518 0.045026,-0.129697 0.2316144,-1.0356 0.4684534,-2.067998 0.7101304,-3.0978331 0.246712,-1.0298347 0.488493,-2.0565895 0.725137,-3.0806711 l 0.211068,-0.9154116 c 0.005,-0.017262 0.0076,-0.034193 0.0076,-0.051454 v -0.060025 c 0,-0.086299 -0.01975,-0.1618143 -0.06003,-0.2251 C 11.300111,4.6364062 11.249781,4.5817159 11.184327,4.541441 11.123907,4.501168 11.052879,4.47295 10.972321,4.455689 10.891771,4.432692 10.809325,4.421387 10.72373,4.421387 Z" />
  </g>
</svg>
